<?xml version="1.0" encoding="iso-8859-1"?>
<!-- Generator: Adobe Illustrator 22.0.1, SVG Export Plug-In . SVG Version: 6.00 Build 0)  -->
<svg version="1.1" id="Icons" xmlns="http://www.w3.org/2000/svg" xmlns:xlink="http://www.w3.org/1999/xlink" x="0px" y="0px"
	 viewBox="0 0 512 512" style="enable-background:new 0 0 512 512;" xml:space="preserve">
<g>
	<path id="XMLID_88_" style="fill:#FB80A5;" d="M512,255.904c0,70.692-28.654,134.692-74.981,181.019S326.692,511.904,256,511.904
		S121.308,483.25,74.981,436.924S0,326.597,0,255.904S28.654,121.212,74.981,74.885S185.308-0.096,256-0.096
		s134.692,28.654,181.019,74.981S512,185.212,512,255.904z"/>
	<g id="XMLID_233_">
		<path id="XMLID_237_" style="fill:#1F3D5C;" d="M256.74,8.219c-22.526,0-42.919,9.13-57.681,23.892
			c-14.762,14.762-23.892,35.155-23.892,57.681s9.13,42.919,23.892,57.681c14.762,14.762,35.155,23.892,57.681,23.892
			s42.919-9.13,57.681-23.892c14.762-14.762,23.892-35.155,23.892-57.681s-9.13-42.919-23.892-57.681
			C299.659,17.349,279.266,8.219,256.74,8.219z"/>
		<path id="XMLID_2631_" style="fill:#1B3349;" d="M272.04,169.834c-2.555,0.5-5.153,0.882-7.786,1.14
			c-2.634,0.257-5.304,0.39-8.004,0.39c-22.53,0-42.925-9.13-57.687-23.891c-14.762-14.761-23.892-35.154-23.892-57.679
			c0-22.525,9.13-42.92,23.892-57.684C213.325,17.347,233.72,8.214,256.25,8.214c2.7,0,5.37,0.132,8.004,0.39
			c2.634,0.257,5.231,0.64,7.786,1.14c-18.75,3.675-35.197,13.775-46.958,27.913S206.25,69.969,206.25,89.794
			c0,19.825,7.073,37.997,18.833,52.132S253.29,166.159,272.04,169.834z"/>
		<path id="XMLID_311_" style="fill:#1B3349;" d="M140.786,206.054L140.786,206.054L140.786,206.054l7.629-18.447l7.629-18.447
			c5.329-12.887,15.378-22.393,27.315-27.346s25.764-5.351,38.651-0.022l0,0h0l-7.629,18.447l-7.629,18.447
			c-5.329,12.887-15.378,22.393-27.315,27.346C167.499,210.985,153.672,211.384,140.786,206.054z"/>
		<path id="XMLID_241_" style="fill:#FDB67A;" d="M175.167,111.42c0,4.095,1.66,7.803,4.344,10.486
			c2.684,2.684,6.391,4.344,10.486,4.344s7.803-1.66,10.486-4.344c2.684-2.684,4.344-6.391,4.344-10.486
			c0-4.095-1.66-7.803-4.344-10.486c-2.684-2.684-6.391-4.344-10.486-4.344s-7.803,1.66-10.486,4.344
			C176.827,103.618,175.167,107.325,175.167,111.42z"/>
		<path id="XMLID_240_" style="fill:#D49369;" d="M184.065,111.42c0,1.638,0.664,3.121,1.737,4.195
			c1.073,1.073,2.557,1.737,4.195,1.737s3.121-0.664,4.195-1.737c1.073-1.073,1.737-2.557,1.737-4.195
			c0-1.638-0.664-3.121-1.737-4.195c-1.073-1.073-2.557-1.737-4.195-1.737s-3.121,0.664-4.195,1.737
			C184.729,108.299,184.065,109.782,184.065,111.42z"/>
		<path id="XMLID_239_" style="fill:#FDB67A;" d="M307.506,111.42c0,4.095,1.66,7.803,4.344,10.486
			c2.684,2.684,6.391,4.344,10.487,4.344c4.095,0,7.803-1.66,10.486-4.344c2.684-2.684,4.344-6.391,4.344-10.486
			c0-4.095-1.66-7.803-4.344-10.486c-2.684-2.684-6.391-4.344-10.486-4.344c-4.095,0-7.803,1.66-10.487,4.344
			C309.166,103.618,307.506,107.325,307.506,111.42z"/>
		<path id="XMLID_238_" style="fill:#E29F6E;" d="M316.404,111.42c0,1.638,0.664,3.121,1.737,4.195
			c1.073,1.073,2.557,1.737,4.195,1.737s3.121-0.664,4.195-1.737c1.073-1.073,1.737-2.557,1.737-4.195
			c0-1.638-0.664-3.121-1.737-4.195c-1.073-1.073-2.556-1.737-4.195-1.737s-3.121,0.664-4.195,1.737
			C317.068,108.299,316.404,109.782,316.404,111.42z"/>
		<path id="XMLID_2627_" style="fill:#E29F6E;" d="M204.825,124.475v-17.341V89.792h-3.303h-3.303c-1.456,0-2.877-0.171-4.251-0.494
			c-1.374-0.323-2.701-0.798-3.969-1.406v18.291v18.291c0,15.338,6.215,29.222,16.263,39.271
			c10.048,10.049,23.929,16.264,39.261,16.264h7.419h7.419c-15.336,0-29.219-6.216-39.269-16.266
			C211.041,153.694,204.825,139.81,204.825,124.475z"/>
		<path id="XMLID_2628_" style="fill:#FDB67A;" d="M313.781,89.792h-9.45h-9.45c-2.002,0-3.937-0.323-5.773-0.921
			s-3.575-1.474-5.184-2.579c-3.187-2.189-5.855-5.297-7.73-9.014s-2.958-8.042-2.976-12.666
			c-0.026,6.958-2.458,13.253-6.375,17.808s-9.32,7.371-15.288,7.371h-15.962h-15.962h-7.403h-7.403v17.341v17.341
			c0,15.336,6.216,29.219,16.266,39.269c10.05,10.05,23.934,16.266,39.269,16.266h3.226h3.226c15.333,0,29.214-6.215,39.261-16.264
			c10.048-10.049,16.263-23.933,16.263-39.271v-18.37v-18.37c-1.102,0.553-2.251,1.003-3.438,1.339s-2.413,0.558-3.667,0.655
			c-0.24,0.018-0.48,0.034-0.721,0.045S314.025,89.792,313.781,89.792z"/>
		<path id="XMLID_516_" style="fill:#245073;" d="M505.84,311.964c-5.02,22.46-12.99,43.807-23.483,63.614
			s-23.508,38.071-38.618,54.366c-7.665,8.265-15.87,16.023-24.559,23.217c-8.689,7.195-17.861,13.828-27.461,19.842
			c-19.67,12.325-41.137,22.05-63.919,28.694c-22.781,6.644-46.876,10.206-71.801,10.206s-49.02-3.562-71.801-10.206
			c-22.781-6.644-44.249-16.369-63.919-28.694c-4.025-2.52-7.975-5.15-11.845-7.885c-3.87-2.735-7.66-5.575-11.365-8.515h-0.03
			h-0.03c-1.67,0-3.2-0.598-4.388-1.591c-1.188-0.994-2.033-2.384-2.333-3.969c-3.6-3.065-7.117-6.228-10.545-9.483
			s-6.765-6.603-10.005-10.038c-15.495-16.43-28.84-34.908-39.586-54.984S11.26,334.789,6.16,311.964H256H505.84z"/>
		<path id="XMLID_503_" style="fill:#FC646F;" d="M443.74,339.724v45.11v45.11c-7.665,8.265-15.87,16.023-24.559,23.217
			c-8.689,7.195-17.861,13.828-27.461,19.842H256H120.28c-4.025-2.52-7.975-5.15-11.845-7.885c-3.87-2.735-7.66-5.575-11.365-8.515
			h-0.03h-0.03c-1.67,0-3.2-0.598-4.388-1.591c-1.188-0.994-2.033-2.384-2.333-3.969c-3.6-3.065-7.117-6.228-10.545-9.483
			s-6.765-6.603-10.005-10.038v-45.9v-45.9c0-4.45,1.803-8.48,4.718-11.398c2.915-2.917,6.942-4.722,11.392-4.722h170.885H427.62
			c4.45,0,8.48,1.805,11.398,4.722C441.935,331.244,443.74,335.274,443.74,339.724z"/>
		<path id="XMLID_309_" style="fill:#E29F6E;" d="M216.334,201.08c-5.775-3.873-12.573-5.038-18.896-3.791
			c-6.322,1.247-12.169,4.906-16.042,10.681l-18.444,27.505l-18.444,27.505l-23.407-15.696L97.694,231.59
			c0.558-0.501,1.081-1.049,1.564-1.642c0.483-0.594,0.924-1.233,1.316-1.918c0.961-1.678,1.567-3.493,1.806-5.355
			s0.11-3.771-0.397-5.637c-0.492-1.812-1.313-3.478-2.411-4.933s-2.474-2.698-4.076-3.665c-1.278-0.77-2.775-0.999-4.156-0.722
			c-1.382,0.276-2.648,1.058-3.465,2.306c-0.874,1.337-1.091,2.893-0.748,4.311s1.246,2.697,2.612,3.479
			c0.403,0.231,0.75,0.534,1.025,0.891s0.481,0.768,0.603,1.217c0.183,0.674,0.161,1.371-0.058,2.019
			c-0.219,0.647-0.633,1.245-1.235,1.719c-0.548,0.432-1.201,0.647-1.869,0.669c-0.668,0.022-1.351-0.15-1.958-0.493
			c-0.079-0.044-0.158-0.087-0.238-0.127c-0.08-0.04-0.161-0.078-0.242-0.114l-0.394-0.265l-0.394-0.265l-0.072,0.108l-0.072,0.108
			c0,0-0.001,0-0.001,0s0,0-0.001,0v-2.909v-2.909c0-2.485-1.007-4.735-2.636-6.364c-1.629-1.629-3.879-2.636-6.364-2.636H72.8
			h-3.033c-1.467,0-2.895,0.353-4.164,1.009c-1.269,0.656-2.379,1.613-3.209,2.823c-4.59,6.686-6.642,13.373-6.158,20.059
			c0.485,6.686,3.506,13.373,9.065,20.059l39.552,26.522l39.552,26.522c2.68,1.797,5.836,2.339,8.77,1.761
			c2.935-0.578,5.649-2.275,7.448-4.954l32.071-47.763l32.071-47.763l-4.216-2.827L216.334,201.08z"/>
		<path id="XMLID_308_" style="fill:#FDB67A;" d="M296.197,201.08c5.775-3.873,12.573-5.038,18.896-3.791
			c6.323,1.247,12.169,4.906,16.042,10.681l18.444,27.505l18.444,27.505l23.407-15.696l23.407-15.696
			c-0.558-0.501-1.081-1.049-1.564-1.642c-0.483-0.594-0.924-1.233-1.316-1.918c-0.961-1.678-1.567-3.493-1.806-5.355
			s-0.11-3.771,0.397-5.637c0.492-1.812,1.313-3.478,2.411-4.933s2.474-2.698,4.076-3.665c1.278-0.77,2.775-0.999,4.156-0.722
			c1.382,0.276,2.648,1.058,3.465,2.306c0.874,1.337,1.091,2.893,0.748,4.311s-1.246,2.697-2.612,3.479
			c-0.403,0.231-0.75,0.534-1.025,0.891s-0.481,0.768-0.603,1.217c-0.183,0.674-0.161,1.371,0.058,2.019
			c0.219,0.647,0.633,1.245,1.235,1.719c0.548,0.432,1.201,0.647,1.869,0.669c0.668,0.022,1.351-0.15,1.958-0.493
			c0.079-0.044,0.158-0.087,0.238-0.127c0.08-0.04,0.161-0.078,0.242-0.114l0.394-0.265l0.394-0.265l0.072,0.108l0.072,0.108
			l0.001,0l0.001,0v-2.909v-2.909c0-2.485,1.007-4.735,2.636-6.364c1.629-1.629,3.879-2.636,6.364-2.636h3.033h3.033
			c1.467,0,2.895,0.353,4.164,1.009s2.379,1.613,3.209,2.823c4.59,6.686,6.642,13.373,6.158,20.059s-3.506,13.373-9.065,20.059
			l-39.552,26.522l-39.552,26.522c-2.68,1.797-5.836,2.339-8.77,1.761c-2.935-0.578-5.649-2.275-7.448-4.954l-32.071-47.763
			l-32.071-47.763l4.216-2.827L296.197,201.08z"/>
		<path id="XMLID_307_" style="fill:#D6D5D4;" d="M329.292,238.831l-2.27,36.565l-2.27,36.565h-68.585h-68.585l-2.27-36.565
			l-2.27-36.565c0-12.575,4.628-23.96,12.111-32.201s17.819-13.339,29.237-13.339h31.778h31.778
			c11.417,0,21.754,5.098,29.237,13.339S329.292,226.256,329.292,238.831z"/>
		<path id="XMLID_245_" style="fill:#FFFFFF;" d="M329.292,238.831l-2.27,36.565l-2.27,36.565H265.7h-59.052v-36.565v-36.565
			c0-12.575,4.628-23.96,12.111-32.201s17.819-13.339,29.237-13.339h19.975h19.975c11.417,0,21.754,5.098,29.237,13.339
			S329.292,226.256,329.292,238.831z"/>
		<path id="XMLID_244_" style="fill:#E29F6E;" d="M276.677,174.961v14.207v14.207c0,2.28-0.924,4.344-2.418,5.838
			c-1.494,1.494-3.558,2.418-5.838,2.418h-11.698h-11.698c-2.28,0-4.344-0.924-5.838-2.418c-1.494-1.494-2.418-3.558-2.418-5.838
			v-14.207v-14.207h19.955H276.677z"/>
		<path id="XMLID_243_" style="fill:#FDB67A;" d="M276.677,174.961v14.707v14.707c0,2.004-0.812,3.818-2.125,5.131
			c-1.313,1.313-3.127,2.125-5.131,2.125h-12.062h-12.062v-18.335v-18.335h15.69H276.677z"/>
		<path id="XMLID_232_" style="fill:#E29F6E;" d="M262.011,133.46h-5.288h-5.288c-1.694,0-3.229-0.687-4.339-1.797
			c-1.11-1.11-1.797-2.644-1.797-4.339v0v0c0-1.694,0.687-3.229,1.797-4.339c1.11-1.11,2.644-1.797,4.339-1.797h5.288h5.288
			c1.694,0,3.229,0.687,4.339,1.797s1.797,2.644,1.797,4.339v0v0c0,1.694-0.687,3.229-1.797,4.339
			C265.24,132.773,263.706,133.46,262.011,133.46z"/>
		<path id="XMLID_231_" style="fill:#1F3D5C;" d="M224.16,126.251h-0.805h-0.805c-1.979,0-3.771-0.802-5.068-2.099
			c-1.297-1.297-2.099-3.089-2.099-5.068v-5.717v-5.717c0-1.979,0.802-3.771,2.099-5.068c1.297-1.297,3.089-2.099,5.068-2.099h0.805
			h0.805c1.979,0,3.771,0.802,5.068,2.099c1.297,1.297,2.099,3.089,2.099,5.068v5.717v5.717c0,1.979-0.802,3.771-2.099,5.068
			C227.93,125.448,226.139,126.251,224.16,126.251z"/>
		<path id="XMLID_39_" style="fill:#FFFFFF;" d="M222.428,108.084c0,1.024,0.415,1.951,1.086,2.622
			c0.671,0.671,1.598,1.086,2.622,1.086s1.951-0.415,2.622-1.086c0.671-0.671,1.086-1.598,1.086-2.622
			c0-1.024-0.415-1.951-1.086-2.622c-0.671-0.671-1.598-1.086-2.622-1.086s-1.951,0.415-2.622,1.086
			C222.843,106.133,222.428,107.06,222.428,108.084z"/>
		<path id="XMLID_229_" style="fill:none;stroke:#1F3D5C;stroke-width:8;stroke-linecap:round;stroke-miterlimit:10;" d="
			M242.449,147.662c0,3.942,1.598,7.51,4.181,10.093c2.583,2.583,6.152,4.181,10.093,4.181c3.942,0,7.51-1.598,10.093-4.181
			s4.181-6.152,4.181-10.093"/>
		<path id="XMLID_228_" style="fill:none;stroke:#1F3D5C;stroke-width:8;stroke-linecap:round;stroke-miterlimit:10;" d="
			M300.859,107.632c0,0,1.25-0.224,2.69-1s3.072-2.105,3.835-4.315"/>
		<path id="XMLID_227_" style="fill:none;stroke:#1F3D5C;stroke-width:8;stroke-linecap:round;stroke-miterlimit:10;" d="
			M216.9,107.632c0,0-1.25-0.224-2.69-1s-3.072-2.105-3.835-4.315"/>
		<path id="XMLID_226_" style="fill:#1F3D5C;" d="M294.417,126.251h-0.805h-0.805c-1.979,0-3.771-0.802-5.068-2.099
			c-1.297-1.297-2.099-3.089-2.099-5.068v-5.717v-5.717c0-1.979,0.802-3.771,2.099-5.068c1.297-1.297,3.089-2.099,5.068-2.099h0.805
			h0.805c1.979,0,3.771,0.802,5.068,2.099c1.297,1.297,2.099,3.089,2.099,5.068v5.717v5.717c0,1.979-0.802,3.771-2.099,5.068
			C298.188,125.448,296.396,126.251,294.417,126.251z"/>
		<path id="XMLID_225_" style="fill:#FFFFFF;" d="M292.686,108.084c0,1.024,0.415,1.951,1.086,2.622
			c0.671,0.671,1.598,1.086,2.622,1.086s1.951-0.415,2.622-1.086c0.671-0.671,1.086-1.598,1.086-2.622
			c0-1.024-0.415-1.951-1.086-2.622s-1.598-1.086-2.622-1.086s-1.951,0.415-2.622,1.086S292.686,107.06,292.686,108.084z"/>
		<polygon id="XMLID_224_" style="fill:#0FA46E;" points="325.89,371.628 256.736,371.628 187.581,371.628 187.581,341.794 
			187.581,311.961 256.736,311.961 325.89,311.961 325.89,341.794 		"/>
		<g id="XMLID_169_">
			<path id="XMLID_223_" style="fill:#077F50;" d="M324.459,306.787l-55.833,49.743l-55.833,49.743l15.997,19.212l15.997,19.212
				l59.032-45.901l59.032-45.901c7.32-6.095,11.799-14.193,13.122-22.359s-0.51-16.4-5.811-22.766
				c-1.2-1.441-2.528-2.726-3.961-3.852c-1.433-1.126-2.972-2.093-4.592-2.898c-1.944-0.978-4.009-1.724-6.154-2.238
				c-2.145-0.514-4.369-0.796-6.632-0.845c-4.132-0.093-8.392,0.595-12.535,2.068C332.147,301.478,328.122,303.737,324.459,306.787z
				"/>
			<path id="XMLID_222_" style="fill:#CF9169;" d="M213.114,406.657l-12.883,10.727l-12.883,10.727
				c-4.285,3.568-7.379,7.979-9.185,12.65c-1.806,4.671-2.324,9.601-1.457,14.208l0.003,0.004l0.003,0.004
				c0.337,1.815,0.892,3.578,1.668,5.254c0.777,1.676,1.775,3.266,2.997,4.733c4.329,5.199,10.671,7.888,17.426,8.033
				c6.755,0.145,13.921-2.254,19.899-7.231l12.883-10.727l12.883-10.727l-15.677-18.828L213.114,406.657z"/>
			<path id="XMLID_221_" style="fill:#088E5D;" d="M324.459,306.787l-55.833,49.743l-55.833,49.743l9.173,11.016l9.173,11.016
				l59.032-45.901l59.032-45.901c5.659-4.712,9.621-10.623,11.738-16.836s2.389-12.728,0.669-18.648
				c-1.944-0.978-4.009-1.724-6.154-2.238c-2.145-0.514-4.369-0.796-6.632-0.845c-4.132-0.093-8.392,0.595-12.535,2.068
				C332.147,301.478,328.122,303.737,324.459,306.787z"/>
			<path id="XMLID_197_" style="fill:#E29F6E;" d="M213.114,406.657l-12.883,10.727l-12.883,10.727
				c-4.285,3.568-7.379,7.979-9.185,12.65c-1.806,4.671-2.324,9.601-1.457,14.208l0.003,0.004l0.003,0.004
				c4.371,1.683,9.311,2.068,14.232,1.14c4.92-0.928,9.82-3.17,14.11-6.742l12.883-10.727l12.883-10.727l-8.853-10.632
				L213.114,406.657z"/>
		</g>
		<g id="XMLID_106_">
			<path id="XMLID_138_" style="fill:#077F50;" d="M182.702,306.787l55.833,49.743l55.833,49.743l-15.997,19.212l-15.997,19.212
				l-59.032-45.901l-59.032-45.901c-7.32-6.095-11.799-14.193-13.122-22.359s0.51-16.4,5.811-22.766
				c1.2-1.441,2.528-2.726,3.961-3.852c1.433-1.126,2.972-2.093,4.592-2.898c1.944-0.978,4.009-1.724,6.154-2.238
				c2.145-0.514,4.369-0.796,6.632-0.845c4.132-0.093,8.392,0.595,12.535,2.068C175.014,301.478,179.039,303.737,182.702,306.787z"
				/>
			<path id="XMLID_110_" style="fill:#CF9169;" d="M294.047,406.657l12.883,10.727l12.883,10.727
				c4.285,3.568,7.379,7.979,9.185,12.65c1.806,4.671,2.324,9.601,1.457,14.208l-0.003,0.004l-0.003,0.004
				c-0.337,1.815-0.892,3.578-1.668,5.254c-0.777,1.676-1.775,3.266-2.997,4.733c-4.329,5.199-10.671,7.888-17.426,8.033
				c-6.755,0.145-13.921-2.254-19.899-7.231l-12.883-10.727l-12.883-10.727l15.677-18.828L294.047,406.657z"/>
			<path id="XMLID_109_" style="fill:#088E5D;" d="M182.702,306.787l55.833,49.743l55.833,49.743l-9.173,11.016l-9.173,11.016
				l-59.032-45.901l-59.032-45.901c-5.659-4.712-9.621-10.623-11.738-16.836s-2.389-12.728-0.669-18.648
				c1.944-0.978,4.009-1.724,6.154-2.238c2.145-0.514,4.369-0.796,6.632-0.845c4.132-0.093,8.392,0.595,12.535,2.068
				C175.014,301.478,179.039,303.737,182.702,306.787z"/>
			<path id="XMLID_38_" style="fill:#E29F6E;" d="M294.047,406.657l12.883,10.727l12.883,10.727
				c4.285,3.568,7.379,7.979,9.185,12.65c1.806,4.671,2.324,9.601,1.457,14.208l-0.003,0.004l-0.003,0.004
				c-4.371,1.683-9.311,2.068-14.232,1.14c-4.92-0.928-9.82-3.17-14.11-6.742l-12.883-10.727l-12.883-10.727l8.853-10.632
				L294.047,406.657z"/>
		</g>
		<path id="XMLID_104_" style="fill:#F8808F;" d="M119.321,371.628h-12.155H95.012c-1.89,0-3.602-0.766-4.84-2.005
			c-1.239-1.239-2.005-2.95-2.005-4.84v0l0,0c0-1.89,0.766-3.602,2.005-4.84c1.239-1.239,2.95-2.005,4.84-2.005h12.155h12.155
			c1.89,0,3.602,0.766,4.84,2.005s2.005,2.95,2.005,4.84l0,0v0c0,1.89-0.766,3.602-2.005,4.84S121.212,371.628,119.321,371.628z"/>
		<path id="XMLID_103_" style="fill:#F8808F;" d="M424.321,355.485h-12.155h-12.155c-1.89,0-3.602-0.766-4.84-2.005
			s-2.005-2.95-2.005-4.84l0,0l0,0c0-1.89,0.766-3.602,2.005-4.84c1.239-1.239,2.95-2.005,4.84-2.005h12.155h12.155
			c1.89,0,3.602,0.766,4.84,2.005c1.239,1.239,2.005,2.95,2.005,4.84l0,0l0,0c0,1.89-0.766,3.602-2.005,4.84
			S426.212,355.485,424.321,355.485z"/>
		<path id="XMLID_452_" style="fill:#F8808F;" d="M128.17,449.764c0,0.945-0.192,1.845-0.54,2.664
			c-0.347,0.819-0.85,1.556-1.47,2.176c-0.62,0.62-1.357,1.12-2.176,1.465s-1.719,0.535-2.664,0.535h-12.155H97.01
			c-1.67,0-3.2-0.598-4.388-1.591c-1.188-0.994-2.033-2.384-2.333-3.969c-0.04-0.205-0.07-0.415-0.09-0.629s-0.03-0.431-0.03-0.651
			c0-0.945,0.193-1.845,0.539-2.664s0.846-1.556,1.461-2.176c0.62-0.62,1.357-1.122,2.176-1.47c0.819-0.348,1.719-0.54,2.664-0.54
			h12.155h12.155c1.89,0,3.602,0.767,4.842,2.007S128.17,447.874,128.17,449.764z"/>
		<path id="XMLID_93_" style="fill:#F8808F;" d="M347.821,420.348h-12.155h-12.155c-1.89,0-3.602-0.766-4.84-2.005
			s-2.005-2.95-2.005-4.84v0l0,0c0-1.89,0.766-3.602,2.005-4.84s2.95-2.005,4.84-2.005h12.155h12.155c1.89,0,3.602,0.766,4.84,2.005
			s2.005,2.95,2.005,4.84l0,0v0c0,1.89-0.766,3.602-2.005,4.84S349.712,420.348,347.821,420.348z"/>
		<path id="XMLID_92_" style="fill:#E35566;" d="M163.821,420.348h-12.155h-12.155c-1.89,0-3.602-0.766-4.84-2.005
			s-2.005-2.95-2.005-4.84v0l0,0c0-1.89,0.766-3.602,2.005-4.84s2.95-2.005,4.84-2.005h12.155h12.155c1.89,0,3.602,0.766,4.84,2.005
			c1.239,1.239,2.005,2.95,2.005,4.84l0,0v0c0,1.89-0.766,3.602-2.005,4.84C167.423,419.581,165.712,420.348,163.821,420.348z"/>
		<path id="XMLID_91_" style="fill:#E35566;" d="M381.821,388.473h-12.155h-12.155c-1.89,0-3.602-0.766-4.84-2.005
			s-2.005-2.95-2.005-4.84l0,0v0c0-1.89,0.766-3.602,2.005-4.84s2.95-2.005,4.84-2.005h12.155h12.155c1.89,0,3.602,0.766,4.84,2.005
			s2.005,2.95,2.005,4.84v0l0,0c0,1.89-0.766,3.602-2.005,4.84S383.712,388.473,381.821,388.473z"/>
		<path id="XMLID_90_" style="fill:#E35566;" d="M417.321,451.542h-12.155h-12.155c-1.89,0-3.602-0.766-4.84-2.005
			s-2.005-2.95-2.005-4.84l0,0l0,0c0-1.89,0.766-3.602,2.005-4.84c1.239-1.239,2.95-2.005,4.84-2.005h12.155h12.155
			c1.89,0,3.602,0.766,4.84,2.005c1.239,1.239,2.005,2.95,2.005,4.84l0,0l0,0c0,1.89-0.766,3.602-2.005,4.84
			S419.212,451.542,417.321,451.542z"/>
	</g>
</g>
</svg>
